<svg id="Layer_1" data-name="Layer 1" xmlns="http://www.w3.org/2000/svg" viewBox="0 0 372.51 394.94"><defs><style>.cls-1{fill:#0f4fb4;}</style></defs><title>Blue lens-R1</title><path class="cls-1" d="M148.68,260.09a59.29,59.29,0,0,0,14.13,1.72c36,0,65.7-29.19,65.79-64.75,0-34.88-30.14-64.5-65.54-64.59A65.34,65.34,0,0,0,97.62,197a63.91,63.91,0,0,0,17.74,44,23.75,23.75,0,1,1,47.36-2.49A23.39,23.39,0,0,1,148.68,260.09ZM185.45,149.7a41.8,41.8,0,0,1,15.76,9.56A40.33,40.33,0,0,1,211,174.75a31.24,31.24,0,0,1,1.12,17.92,57.91,57.91,0,0,0-5.94-15.85A54.83,54.83,0,0,0,196.39,164a54.07,54.07,0,0,0-12.92-9.47,76.21,76.21,0,0,0-15.93-5.86A32.61,32.61,0,0,1,185.45,149.7Z"/><path class="cls-1" d="M331.41,226.42A98.07,98.07,0,0,0,293,200.93a120.8,120.8,0,0,0-11.89-3.87,63,63,0,0,0,21.62-22.31c5.08-9,7.66-20.06,7.66-33.23A96.14,96.14,0,0,0,307.64,118a67.61,67.61,0,0,0-4.56-13,63.88,63.88,0,0,0-22.82-26.18c-10.42-6.89-23.77-12.06-40.21-15.5Q233.9,62,227.14,61.09c0-14.42,0-31.94,0-48.6-26,0-91.58-.06-116.84-.09,0,15.27,0,31.49,0,45.85h-89v147c5,7.75,13.17,13.43,21.7,14.12,10.76.77,21.7.17,32.55.09a4.34,4.34,0,0,0,1.89-.35,84.39,84.39,0,0,1-2.75-22.39c.43-48.05,40-87.14,88.17-87.14,48.22.17,88.61,40.21,88.61,87.57A86.75,86.75,0,0,1,242.2,236c-.17.6-.26,1.12-.43,1.72h-.43a88.5,88.5,0,0,1-78.19,47h-.34A89.19,89.19,0,0,1,100,258,87.14,87.14,0,0,1,85,237.79H21.33V379.7H216.45c21.19,0,40.13-2.33,56.66-7s30.57-11.19,42-19.72a86.08,86.08,0,0,0,26.26-31q9.17-18.33,9.13-40.55Q350.53,247.48,331.41,226.42Zm-52.18-104.8H252.45V108.19h26.78Z"/><path class="cls-1" d="M84.85,46c0-4.33.06-13.75,0-19.08-12.46,0-39.84.26-44.14.29.06,6.39.12,13.2.18,18.79C52.14,45.94,75.25,46,84.85,46Z"/></svg>