<?xml version="1.0" encoding="UTF-8"?>
<svg id="Layer_1" data-name="Layer 1" xmlns="http://www.w3.org/2000/svg" viewBox="0 0 794.57 366.4">
  <defs>
    <style>
      .cls-1 {
        fill: #005f60;
      }
    </style>
  </defs>
  <path class="cls-1" d="M469.7,281.86h14.34v71.81h41.8v11.78h-56.14v-83.59Z"/>
  <path class="cls-1" d="M545.41,281.86h63.26v11.77h-48.83v24.23h38.19v11.78h-38.19v24h48.83v11.81h-63.26v-83.59Z"/>
  <path class="cls-1" d="M647.04,304.27v61.18h-13.48v-83.59h13.58l44.17,61v-61h13.49v83.21l.29.38h-13.68l-44.37-61.18Z"/>
  <path class="cls-1" d="M759.99,366.4c-3.64.02-7.27-.22-10.87-.72-2.95-.4-5.87-.99-8.74-1.75-2.24-.58-4.44-1.35-6.56-2.28-1.51-.66-2.96-1.46-4.32-2.38v-13.52c1.72,1.68,3.74,3.03,5.94,4,2.56,1.15,5.21,2.09,7.93,2.8,2.9.77,5.85,1.34,8.83,1.71,2.9.37,5.82.56,8.74.57,5.64,0,10.09-.82,13.35-2.47,3.13-1.44,5.07-4.64,4.89-8.08.02-1.65-.41-3.27-1.24-4.7-.99-1.59-2.34-2.92-3.94-3.89-2.2-1.36-4.55-2.48-7-3.33-3.39-1.2-6.84-2.2-10.35-3-4.43-1.01-8.78-2.38-13-4.08-3.25-1.29-6.29-3.07-9-5.28-2.21-1.83-3.98-4.13-5.18-6.74-2.43-5.89-2.17-12.56.72-18.24,1.64-3,3.94-5.59,6.74-7.55,3.19-2.22,6.74-3.86,10.5-4.85,4.42-1.18,8.97-1.75,13.54-1.7,2.59,0,5.18.2,7.74.61,2.34.38,4.65.89,6.93,1.52,1.94.54,3.84,1.21,5.7,2,1.39.57,2.71,1.28,3.94,2.13v13.49c-1.69-1.64-3.67-2.94-5.84-3.84-2.33-1.04-4.75-1.88-7.22-2.52-2.23-.59-4.5-1.04-6.79-1.33-1.55-.21-3.1-.34-4.66-.38-2.69-.05-5.37.22-8,.81-1.93.41-3.76,1.17-5.42,2.23-2.58,1.66-4.13,4.53-4.08,7.6-.04,1.61.35,3.2,1.14,4.61.89,1.42,2.09,2.62,3.51,3.51,1.9,1.19,3.94,2.13,6.08,2.8,2.47.83,5.41,1.65,8.84,2.47,11.01,2.54,19.03,5.82,24.08,9.83,4.84,3.64,7.65,9.38,7.55,15.44.13,4-.78,7.96-2.66,11.49-1.77,3.1-4.28,5.7-7.32,7.56-3.39,2.04-7.11,3.45-11,4.17-4.45.87-8.97,1.3-13.5,1.28Z"/>
  <path class="cls-1" d="M97.09,82.29c-24.53-.05-44.52,19.66-44.83,44.18.03,11.23,4.38,22.02,12.15,30.14-.05-.57-.07-1.14-.06-1.71,0-8.97,7.28-16.25,16.25-16.25s16.25,7.28,16.25,16.25c.05,6.41-3.73,12.24-9.61,14.8,3.16.78,6.41,1.18,9.67,1.18,24.66,0,45-20,45.06-44.35,0-23.89-20.61-44.18-44.88-44.24ZM126.64,112.67c-3.63-6.47-9.03-11.78-15.57-15.28-3.48-1.74-7.14-3.08-10.91-4,4.07-.91,8.32-.67,12.26.71,4.04,1.36,7.73,3.59,10.8,6.54,3.03,2.98,5.32,6.61,6.72,10.62,1.46,3.93,1.72,8.19.77,12.27-.82-3.8-2.19-7.46-4.07-10.86Z"/>
  <path class="cls-1" d="M212.36,146.64c-7.26-7.83-16.28-13.82-26.31-17.46-2.67-1.02-5.38-1.91-8.14-2.65,6.15-3.77,11.25-9.03,14.85-15.28,3.48-6.19,5.25-13.74,5.25-22.77.04-5.42-.6-10.83-1.89-16.1-.74-3.06-1.79-6.05-3.13-8.9-3.45-7.31-8.86-13.52-15.63-17.94-7.13-4.71-16.28-8.25-27.54-10.61s-24.83-3.48-40.64-3.48H0v100.68c3.42,5.31,9,9.2,14.87,9.68,7.37.53,14.86.11,22.29.05.45.02.89-.06,1.3-.23-1.31-5.01-1.95-10.17-1.89-15.34.46-33.05,27.35-59.62,60.4-59.69,33,.12,60.69,27.55,60.69,60-.02,9.24-2.21,18.35-6.37,26.6-.11.41-.17.77-.29,1.18h-.3c-10.51,19.82-31.12,32.21-53.55,32.2h-.24c-16.19-.16-31.65-6.73-43-18.28-4.09-4.09-7.57-8.76-10.32-13.86H0v97.2h133.66c14.51,0,27.48-1.59,38.81-4.78s20.94-7.66,28.78-13.5c7.61-5.54,13.78-12.83,18-21.24,4.24-8.64,6.38-18.16,6.25-27.78,0-15.51-4.39-28.08-13.14-37.7ZM158.36,65.66h18.3v9.2h-18.3v-9.2Z"/>
  <path class="cls-1" d="M248.26,31.43h37.79v189.17h110.1v31h-147.89V31.43Z"/>
  <path class="cls-1" d="M405.8,31.43h37.79v138.38c0,10,2.13,18.38,6.38,25.14,4.01,6.51,9.39,12.06,15.76,16.27,6.13,4.04,12.89,7.04,20,8.88,12.67,3.68,26.12,3.68,38.79,0,7.08-1.83,13.8-4.83,19.89-8.88,6.32-4.24,11.65-9.79,15.64-16.27,4.25-6.75,6.38-15.13,6.38-25.14V31.43h37.79v128.37c0,14.67-2.38,27.85-7.14,39.54-4.47,11.27-11.35,21.43-20.14,29.77-9.05,8.4-19.79,14.76-31.51,18.64-12.34,4.26-26.01,6.39-41,6.39s-28.32-2.17-40.42-6.51c-11.55-4.01-22.15-10.36-31.15-18.64-8.79-8.27-15.62-18.4-20-29.65-4.67-11.68-7-24.86-7-39.54l-.06-128.37Z"/>
  <path class="cls-1" d="M627.91,31.43h166.66v31h-128.62v63.81h100.6v31h-100.6v63.3h128.62v31h-166.66V31.43Z"/>
  <path class="cls-1" d="M140.97,36.75c-29.19,0-63.06,0-80-.06V0c17.3,0,62.22.06,80,.06.02,12.79.02,26.29,0,36.69Z"/>
  <path class="cls-1" d="M43.51,23.04H13.42c0-3.83-.08-8.5-.12-12.87,2.94,0,21.7-.2,30.23-.2.02,3.65,0,10.1-.02,13.07Z"/>
  <rect class="cls-1" y="319.23" width="439.72" height="8.85"/>
</svg>