<svg id="Layer_1" data-name="Layer 1" xmlns="http://www.w3.org/2000/svg" viewBox="0 0 841.85 394.94"><defs><style>.cls-1{fill:#0f4fb4;}</style></defs><title>Blue lens-R1</title><path class="cls-1" d="M493.34,296.11h14.34v71.81h41.8V379.7H493.34Z"/><path class="cls-1" d="M569.05,296.11h63.26v11.77H583.48v24.23h38.19v11.78H583.48v24h48.83V379.7H569.05Z"/><path class="cls-1" d="M670.68,318.52V379.7H657.2V296.11h13.58l44.17,61v-61h13.49v83.21l.29.38H715.05Z"/><path class="cls-1" d="M783.63,380.65a75,75,0,0,1-10.87-.72,72.42,72.42,0,0,1-8.74-1.75,43.74,43.74,0,0,1-6.56-2.28,26.83,26.83,0,0,1-4.32-2.38V360a20,20,0,0,0,5.94,4,50.23,50.23,0,0,0,7.93,2.8,66,66,0,0,0,8.83,1.71,70.49,70.49,0,0,0,8.74.57q8.46,0,13.35-2.47a8.41,8.41,0,0,0,4.89-8.08,9.17,9.17,0,0,0-1.24-4.7,11.8,11.8,0,0,0-3.94-3.89,35.41,35.41,0,0,0-7-3.33,91.73,91.73,0,0,0-10.35-3,85.77,85.77,0,0,1-13-4.08,34,34,0,0,1-9-5.28,19,19,0,0,1-5.18-6.74,21.88,21.88,0,0,1,.72-18.24,22.2,22.2,0,0,1,6.74-7.55,33.25,33.25,0,0,1,10.5-4.85,50.29,50.29,0,0,1,13.54-1.7,47.76,47.76,0,0,1,7.74.61,65.19,65.19,0,0,1,6.93,1.52,46.93,46.93,0,0,1,5.7,2,20.66,20.66,0,0,1,3.94,2.13v13.49a18.64,18.64,0,0,0-5.84-3.84,46.53,46.53,0,0,0-7.22-2.52,52.16,52.16,0,0,0-6.79-1.33,43.59,43.59,0,0,0-4.66-.38,34,34,0,0,0-8,.81,16.51,16.51,0,0,0-5.42,2.23,8.86,8.86,0,0,0-4.08,7.6,9,9,0,0,0,1.14,4.61,11,11,0,0,0,3.51,3.51,26,26,0,0,0,6.08,2.8c2.47.83,5.41,1.65,8.84,2.47q16.51,3.81,24.08,9.83a18.92,18.92,0,0,1,7.55,15.44,22.87,22.87,0,0,1-2.66,11.49,21.2,21.2,0,0,1-7.32,7.56,32.91,32.91,0,0,1-11,4.17A68.07,68.07,0,0,1,783.63,380.65Z"/><path class="cls-1" d="M120.73,96.54A44.75,44.75,0,0,0,75.9,140.72a43.79,43.79,0,0,0,12.15,30.14,16.87,16.87,0,0,1-.06-1.71,16.25,16.25,0,1,1,32.5,0,16,16,0,0,1-9.61,14.8,40.39,40.39,0,0,0,9.67,1.18c24.66,0,45-20,45.06-44.35C165.61,116.89,145,96.6,120.73,96.54Zm29.55,30.38a38.92,38.92,0,0,0-15.57-15.28,52.12,52.12,0,0,0-10.91-4,22.32,22.32,0,0,1,12.26.71,28.94,28.94,0,0,1,10.8,6.54,27.65,27.65,0,0,1,6.72,10.62,21.31,21.31,0,0,1,.77,12.27A39.82,39.82,0,0,0,150.28,126.92Z"/><path class="cls-1" d="M236,160.89a67.07,67.07,0,0,0-26.31-17.46,82.54,82.54,0,0,0-8.14-2.65A43.18,43.18,0,0,0,216.4,125.5c3.48-6.19,5.25-13.74,5.25-22.77a65.83,65.83,0,0,0-1.89-16.1,46.76,46.76,0,0,0-3.13-8.9A43.75,43.75,0,0,0,201,59.79c-7.13-4.71-16.28-8.25-27.54-10.61s-24.83-3.48-40.64-3.48H23.64V146.38c3.42,5.31,9,9.2,14.87,9.68,7.37.53,14.86.11,22.29.05a3,3,0,0,0,1.3-.23,57.74,57.74,0,0,1-1.89-15.34,60.53,60.53,0,0,1,60.4-59.69c33,.12,60.69,27.55,60.69,60a59.38,59.38,0,0,1-6.37,26.6c-.11.41-.17.77-.29,1.18h-.3a60.6,60.6,0,0,1-53.55,32.2h-.24a61.11,61.11,0,0,1-43-18.28,59.67,59.67,0,0,1-10.32-13.86H23.64v97.2H157.3c14.51,0,27.48-1.59,38.81-4.78s20.94-7.66,28.78-13.5a59,59,0,0,0,18-21.24,61.16,61.16,0,0,0,6.25-27.78Q249.13,175.32,236,160.89ZM182,79.91H200.3v9.2H182Z"/><path class="cls-1" d="M271.9,45.68h37.79V234.85h110.1v31H271.9Z"/><path class="cls-1" d="M429.44,45.68h37.79V184.06q0,15,6.38,25.14a52.52,52.52,0,0,0,15.76,16.27,67,67,0,0,0,20,8.88,69.53,69.53,0,0,0,38.79,0,65.31,65.31,0,0,0,19.89-8.88,53.07,53.07,0,0,0,15.64-16.27q6.38-10.12,6.38-25.14V45.68h37.79V174.05q0,22-7.14,39.54a83.52,83.52,0,0,1-20.14,29.77A86.11,86.11,0,0,1,569.07,262q-18.51,6.39-41,6.39-22.27,0-40.42-6.51a89.21,89.21,0,0,1-31.15-18.64,81.08,81.08,0,0,1-20-29.65q-7-17.52-7-39.54Z"/><path class="cls-1" d="M651.55,45.68H818.21v31H689.59v63.81h100.6v31H689.59v63.3H818.21v31H651.55Z"/><path class="cls-1" d="M164.61,51c-29.19,0-63.06,0-80-.06,0-11,0-24.31,0-36.69,17.3,0,62.22.06,80,.06C164.63,27.1,164.63,40.6,164.61,51Z"/><path class="cls-1" d="M67.15,37.29c-6.57,0-22.4,0-30.09,0,0-3.83-.08-8.5-.12-12.87,2.94,0,21.7-.2,30.23-.2C67.19,27.87,67.17,34.32,67.15,37.29Z"/><rect class="cls-1" x="23.64" y="333.48" width="439.72" height="8.85"/></svg>