<svg version="1.1" id="Layer_1" xmlns="http://www.w3.org/2000/svg" xmlns:xlink="http://www.w3.org/1999/xlink" x="0px" y="0px"
	 width="100%" viewBox="0 0 1024 1024" enable-background="new 0 0 1024 1024" xml:space="preserve">
<path fill="#000000" opacity="1.000000" stroke="none" 
	d="
M561.625000,561.789124 
	C487.340424,587.184082 413.198059,545.440552 390.573334,478.490509 
	C364.042297,399.981018 413.844055,317.306671 495.621429,303.570831 
	C565.950500,291.757874 635.007812,340.601746 647.450012,410.653564 
	C654.710510,451.531586 646.246643,488.432648 620.114746,520.780457 
	C604.727295,539.828064 585.142029,553.391602 561.625000,561.789124 
M562.486023,325.044586 
	C541.376892,316.554260 519.732361,313.155640 497.039154,317.165527 
	C442.694733,326.768188 400.031189,372.525208 397.446960,430.186890 
	C396.163696,458.820709 404.396759,484.749084 421.887421,507.586884 
	C443.501770,535.809082 472.113068,551.950500 507.373352,555.441284 
	C529.550720,557.636841 550.764343,552.914856 570.664673,542.741333 
	C615.276489,519.934875 644.587524,470.428986 634.085144,414.117767 
	C626.307373,372.415131 601.828735,342.946320 562.486023,325.044586 
z"/>
<path fill="#000000" opacity="1.000000" stroke="none" 
	d="
M424.652222,580.381348 
	C396.521698,556.985046 379.180054,527.682434 373.058502,491.892242 
	C370.016937,474.109436 370.435028,456.456879 375.579132,439.045471 
	C375.806519,438.275726 375.757141,437.369415 376.915436,437.104919 
	C378.806854,438.334900 378.052673,440.372345 378.121094,442.038086 
	C379.779175,482.414398 396.559875,515.397339 426.892670,541.701355 
	C430.495728,544.825867 432.974915,548.740234 435.826080,552.401245 
	C461.114502,584.872498 494.166077,604.864563 534.162537,613.744934 
	C535.765808,614.100891 537.345093,614.564697 539.344177,615.084534 
	C518.745239,620.659058 463.772827,613.909363 424.652222,580.381348 
z"/>
<path fill="#000000" opacity="1.000000" stroke="none" 
	d="
M645.434937,382.540405 
	C635.030090,357.998260 619.427307,338.027832 598.139343,322.575745 
	C595.534973,320.685364 593.436707,318.355988 591.393494,315.939087 
	C565.460449,285.263428 532.774780,266.183319 493.307831,258.653076 
	C490.663605,258.148590 487.658386,258.984406 484.118835,256.188354 
	C510.386414,252.649277 534.758911,255.184128 558.610046,263.536957 
	C582.707458,271.975983 603.444763,285.656342 620.365723,304.646484 
	C649.660950,337.523987 662.368469,375.723969 655.802612,419.677551 
	C652.878418,407.298431 650.518616,394.748077 645.434937,382.540405 
z"/>
<path fill="#000000" opacity="1.000000" stroke="none" 
	d="
M458.980469,285.855377 
	C495.790802,269.268982 529.691284,276.235779 561.999634,297.093719 
	C566.241089,299.831970 570.538147,302.645294 574.669250,307.957672 
	C515.395325,285.293091 463.346954,294.650757 417.674469,337.145691 
	C415.603088,324.610321 438.230286,296.466614 458.980469,285.855377 
z"/>
<path fill="#000000" opacity="1.000000" stroke="none" 
	d="
M601.688232,546.689209 
	C604.125732,544.723389 606.280945,542.973755 608.424316,541.233704 
	C610.388306,543.124390 608.843811,544.330200 608.292725,545.512329 
	C589.266785,586.323120 550.691162,601.186951 511.329681,593.258911 
	C489.783508,588.919250 470.849426,579.329346 454.968109,563.977356 
	C454.132599,563.169678 453.302460,562.351562 452.535004,561.480835 
	C452.235565,561.141113 452.116364,560.642456 451.461090,559.254761 
	C504.397919,584.786865 554.223389,580.736267 601.688232,546.689209 
z"/>
<path fill="#000000" opacity="1.000000" stroke="none" 
	d="
M287.984497,656.652222 
	C292.455566,656.809692 296.462677,656.231689 300.402130,657.179749 
	C312.759033,660.153625 316.658875,672.592712 308.230621,682.138977 
	C307.810181,682.615173 307.429535,683.126465 306.653442,684.088867 
	C312.808350,686.999390 315.004608,692.202576 314.962341,698.364197 
	C314.901733,707.200073 308.780396,713.724304 299.577942,714.193115 
	C290.623718,714.649292 281.629791,714.305725 272.653625,714.364136 
	C270.140594,714.380493 268.999725,713.192505 268.998016,710.748779 
	C268.986328,693.958435 268.979248,677.168030 268.949158,660.377686 
	C268.944153,657.586975 270.390076,656.603943 273.024902,656.643555 
	C277.844849,656.716187 282.666779,656.657288 287.984497,656.652222 
M284.809753,705.014038 
	C288.788879,704.942749 292.771118,704.946045 296.746185,704.778381 
	C300.455841,704.621887 302.399689,702.207397 303.286102,698.925415 
	C304.209229,695.507446 303.120575,692.298828 300.113678,690.731018 
	C294.399567,687.751404 287.713043,688.119629 282.214325,689.971680 
	C277.990265,691.394409 280.925537,697.396057 280.368408,701.313721 
	C280.018524,703.774292 281.451324,704.986511 284.809753,705.014038 
M292.019958,680.575134 
	C292.849670,680.514709 293.689758,680.517700 294.507324,680.383301 
	C298.919159,679.658569 301.353485,676.981323 301.450623,672.576538 
	C301.535217,668.737610 298.422455,666.249573 293.520264,666.031738 
	C290.363464,665.891418 287.194000,666.044678 284.030151,666.054077 
	C281.640503,666.061157 280.329224,667.044617 280.322601,669.633667 
	C280.289490,682.589478 279.380646,680.419983 290.135284,680.595764 
	C290.468231,680.601196 290.801483,680.590637 292.019958,680.575134 
z"/>
<path fill="#000000" opacity="1.000000" stroke="none" 
	d="
M662.237183,678.274780 
	C661.741943,677.657410 661.429443,677.277283 660.271423,675.868408 
	C660.271423,681.035217 660.273926,685.177795 660.270813,689.320374 
	C660.265747,696.143311 660.079468,702.972168 660.305725,709.787354 
	C660.488953,715.305115 656.719849,714.125122 653.532898,714.352417 
	C649.779724,714.620117 649.328430,712.775879 649.378723,709.471069 
	C649.614136,694.015320 649.483704,678.554199 649.651123,663.096863 
	C649.674866,660.908264 648.252258,657.577454 651.903137,656.911804 
	C655.282166,656.295715 658.556946,656.095886 661.141296,659.790588 
	C668.768494,670.695007 676.787720,681.325256 684.659180,692.058655 
	C685.032715,692.567993 685.459961,693.037903 686.689209,694.529663 
	C686.689209,683.193237 686.908997,672.967407 686.593445,662.758057 
	C686.442993,657.889160 688.119141,656.329956 692.888489,656.572571 
	C696.453857,656.754028 697.399170,658.119934 697.376038,661.417908 
	C697.268494,676.727234 697.400208,692.038513 697.248901,707.347046 
	C697.225769,709.687988 698.891846,713.267517 695.079895,714.084167 
	C691.371521,714.878479 687.742676,714.882690 685.046082,710.801147 
	C679.179199,701.921448 672.841919,693.352600 666.702454,684.652832 
	C665.263611,682.613892 663.846863,680.559387 662.237183,678.274780 
z"/>
<path fill="#000000" opacity="1.000000" stroke="none" 
	d="
M382.838867,660.271606 
	C384.226990,654.369629 388.543671,657.091858 391.541473,656.948853 
	C394.717407,656.797485 394.172455,659.803711 394.188110,661.850159 
	C394.263275,671.678406 394.188477,681.507751 394.273621,691.335815 
	C394.351624,700.335205 398.943329,705.564758 406.712616,705.710876 
	C414.995087,705.866760 420.471710,700.428040 420.622559,691.490234 
	C420.791168,681.497681 420.851685,671.495667 420.594879,661.507141 
	C420.483307,657.167664 422.612335,656.681091 426.096313,656.633057 
	C429.774780,656.582275 431.520935,657.520203 431.426056,661.665833 
	C431.178375,672.488464 431.440155,683.321777 431.295563,694.148132 
	C431.166016,703.849182 424.936066,711.973267 415.568726,714.244141 
	C398.984192,718.264709 382.736816,712.499146 382.821533,689.729309 
	C382.857483,680.067383 382.818848,670.405212 382.838867,660.271606 
z"/>
<path fill="#000000" opacity="1.000000" stroke="none" 
	d="
M599.087952,714.339966 
	C591.797546,714.244568 591.767212,714.244629 591.757812,707.380249 
	C591.737366,692.563843 591.899475,677.745056 591.663757,662.932434 
	C591.589844,658.286255 592.812195,656.387695 597.790527,656.562256 
	C607.267395,656.894653 616.765991,656.688721 626.253967,656.575562 
	C629.082397,656.541870 630.659119,657.199280 630.418213,660.466919 
	C630.205444,663.351990 630.681702,666.287048 626.287415,666.207520 
	C619.963867,666.092896 613.634766,666.300171 607.310547,666.204773 
	C604.305603,666.159546 603.004150,667.369751 603.240479,670.357178 
	C603.487305,673.477173 602.799133,676.653687 603.780396,680.085632 
	C609.698059,681.268738 615.654907,679.721191 621.582336,680.054932 
	C624.770996,680.234497 627.413391,680.120850 627.417236,684.695129 
	C627.420959,689.183777 625.019104,689.427063 621.683899,689.341431 
	C617.192078,689.226074 612.688965,689.465149 608.201965,689.279358 
	C604.684265,689.133667 603.028259,690.179199 603.138428,694.049622 
	C603.493652,706.528625 601.681030,704.572693 613.677124,704.774231 
	C618.004272,704.846924 622.337708,704.894226 626.660706,704.740479 
	C629.883484,704.625793 630.660400,706.233093 630.487549,709.058472 
	C630.322571,711.754517 630.722900,714.463318 626.544983,714.388733 
	C617.558105,714.228149 608.566406,714.340027 599.087952,714.339966 
z"/>
<path fill="#000000" opacity="1.000000" stroke="none" 
	d="
M490.150269,705.740967 
	C491.936401,713.484009 491.290527,714.323853 484.069672,714.331909 
	C474.905548,714.342041 465.741272,714.316162 456.577423,714.369629 
	C453.924713,714.385132 452.169098,713.975525 452.181671,710.585510 
	C452.240936,694.598877 452.239960,678.609009 451.942993,662.626160 
	C451.858398,658.074097 453.190765,656.431580 457.869812,656.587891 
	C467.023346,656.893616 476.196869,656.767517 485.357971,656.596802 
	C488.931213,656.530273 490.410797,657.620605 490.389374,661.425842 
	C490.368042,665.212341 488.876038,666.385559 485.315155,666.282715 
	C479.488434,666.114502 473.650909,666.341553 467.822266,666.210999 
	C464.737274,666.141846 463.378845,667.084351 463.268677,670.451111 
	C462.935516,680.628601 462.802399,680.628235 472.937744,680.617249 
	C476.603119,680.613281 480.272064,680.678345 483.932800,680.539368 
	C486.982178,680.423584 488.065826,681.835938 488.059387,684.740784 
	C488.052765,687.735474 487.170227,689.449524 483.769684,689.355530 
	C478.442139,689.208252 473.104980,689.424683 467.776184,689.301208 
	C464.599091,689.227600 463.257996,690.449890 463.308807,693.698853 
	C463.512634,706.732849 461.826233,704.486877 473.952728,704.845337 
	C479.251434,705.001953 484.591980,704.097839 490.150269,705.740967 
z"/>
<path fill="#000000" opacity="1.000000" stroke="none" 
	d="
M353.908813,442.094055 
	C359.737366,426.872772 368.895172,414.455383 380.608307,403.269775 
	C382.017212,405.980286 380.407684,407.624542 379.661926,409.252777 
	C372.289459,425.349030 365.882019,441.765503 363.191040,459.378967 
	C359.426178,484.021149 359.546570,508.465271 367.433105,532.446228 
	C367.679321,533.194885 368.212402,533.965698 367.564453,534.778870 
	C350.707031,525.638062 342.965363,473.778229 353.908813,442.094055 
z"/>
<path fill="#000000" opacity="1.000000" stroke="none" 
	d="
M659.024536,328.383362 
	C670.524902,344.295685 678.174438,361.468170 680.273804,380.795319 
	C682.928711,405.236267 675.570740,427.121490 662.546997,447.410217 
	C660.312988,450.890350 658.497070,454.860474 654.293152,457.651245 
	C653.756653,453.462189 655.278442,450.436615 656.267273,447.370728 
	C663.056763,426.320557 666.783081,404.761780 666.612732,382.637878 
	C666.477478,365.072418 663.445435,347.922394 657.875671,331.242462 
	C657.185608,329.176025 657.176697,329.178986 659.024536,328.383362 
z"/>
<path fill="#000000" opacity="1.000000" stroke="none" 
	d="
M746.025696,666.852600 
	C742.124817,665.669128 738.535767,664.816162 734.842896,665.506409 
	C731.717468,666.090698 729.151611,667.631897 728.455200,671.022522 
	C727.716492,674.619446 729.854736,676.772339 732.789368,678.029785 
	C736.759521,679.730774 740.893616,681.044617 744.926147,682.605286 
	C754.304565,686.234985 758.615662,692.882141 757.108398,701.285767 
	C755.658386,709.370239 748.669800,714.866089 739.424194,715.332458 
	C733.335815,715.639526 727.503906,714.804199 721.874512,712.344604 
	C714.949890,709.319092 714.429138,707.712830 718.750122,700.287598 
	C722.788269,701.963623 726.724854,704.134827 731.108459,705.134216 
	C733.931946,705.777954 736.758423,706.035706 739.516479,705.403931 
	C742.358765,704.752808 744.951538,703.279663 745.496948,700.065796 
	C746.078735,696.638062 744.228088,694.129028 741.278076,692.862793 
	C736.240417,690.700562 730.886292,689.249756 725.923584,686.943909 
	C715.260132,681.989563 713.577637,667.989563 722.602234,660.412354 
	C728.428345,655.520569 735.355896,655.150635 742.473450,656.068481 
	C744.437561,656.321777 746.373352,656.933594 748.270813,657.541077 
	C756.402405,660.144165 756.835144,661.186584 753.266968,669.319641 
	C750.585205,669.793152 748.730103,667.636597 746.025696,666.852600 
z"/>
<path fill="#000000" opacity="1.000000" stroke="none" 
	d="
M349.301758,704.773010 
	C354.762085,704.780823 359.760010,704.861389 364.754242,704.760437 
	C367.880615,704.697327 368.933777,706.241821 368.648499,709.096985 
	C368.389801,711.685669 368.788177,714.483765 364.597809,714.441162 
	C355.276764,714.346497 345.951904,714.569031 336.629456,714.717529 
	C333.875946,714.761353 332.756165,713.514893 332.763367,710.794373 
	C332.807556,694.139832 332.847412,677.484802 332.751709,660.830750 
	C332.723907,655.990540 336.039551,656.838989 338.950958,656.672180 
	C342.159149,656.488403 344.371918,656.969238 344.317810,661.115723 
	C344.150543,673.937500 344.339539,686.763733 344.224426,699.586731 
	C344.194031,702.969177 344.858459,705.206726 349.301758,704.773010 
z"/>
<path fill="#000000" opacity="1.000000" stroke="none" 
	d="
M551.234985,666.048096 
	C551.244019,677.525818 551.377075,688.511292 551.201172,699.491821 
	C551.140625,703.272888 552.162415,705.009583 556.243530,704.791321 
	C561.221069,704.525208 566.229858,704.890991 571.215698,704.715149 
	C575.151367,704.576416 575.315247,706.898682 575.374207,709.852661 
	C575.436279,712.965271 574.437744,714.414551 571.102295,714.366760 
	C562.117737,714.237976 553.129028,714.257446 544.143921,714.370789 
	C540.864990,714.412109 539.778748,712.951294 539.788147,709.850403 
	C539.837097,693.708252 539.902222,677.564270 539.697021,661.424255 
	C539.635132,656.551453 542.503601,656.759155 545.862732,656.632629 
	C549.489807,656.495972 551.731323,657.369263 551.261841,661.562500 
	C551.114624,662.877441 551.238281,664.222595 551.234985,666.048096 
z"/>
<path fill="#000000" opacity="1.000000" stroke="none" 
	d="
M546.787964,762.055542 
	C542.794067,760.592651 541.113647,761.955200 541.279541,765.823059 
	C541.336365,767.148315 541.271362,768.486206 541.157532,769.809265 
	C541.044800,771.119446 540.332947,771.941895 538.935852,772.031677 
	C537.621460,772.116150 536.381775,771.651001 536.312500,770.318054 
	C535.881897,762.029785 535.588318,753.732239 536.324707,745.444641 
	C536.402283,744.571472 537.211243,743.925049 538.071228,743.904663 
	C542.857788,743.790955 547.752380,742.740479 552.374268,744.629639 
	C557.518860,746.732605 559.109497,753.554626 555.598694,758.069153 
	C554.814209,759.077881 553.545654,759.710327 552.645325,760.403931 
	C554.115417,764.804810 557.761475,767.319519 558.500366,771.486206 
	C555.629944,772.978088 553.619202,772.145142 552.028809,769.747864 
	C550.377319,767.258240 548.727539,764.767456 546.787964,762.055542 
M550.821594,755.419739 
	C552.243164,753.220886 552.424561,750.906799 550.292969,749.250977 
	C548.068298,747.522888 545.143860,747.674072 542.756836,748.661316 
	C540.264282,749.692200 540.840454,752.677734 541.510132,754.347534 
	C543.373657,758.994019 547.101562,756.408936 550.821594,755.419739 
z"/>
<path fill="#000000" opacity="1.000000" stroke="none" 
	d="
M505.273407,769.918823 
	C500.094971,764.926453 499.874969,758.925781 501.106598,752.936829 
	C502.838684,744.514404 513.096008,740.409973 520.601074,744.802246 
	C522.057068,745.654419 523.664368,746.617371 522.768677,748.673523 
	C521.883301,750.705933 520.331360,749.742981 518.958191,749.189575 
	C515.031616,747.607117 511.119293,747.056274 507.853607,750.419006 
	C505.101471,753.252991 504.942627,760.145752 507.199554,764.102295 
	C509.021912,767.296936 511.808167,768.328796 515.245544,767.530457 
	C517.432251,767.022644 519.496277,765.914246 519.503479,763.327698 
	C519.510437,760.851624 517.273499,761.400940 515.737915,761.162415 
	C514.289307,760.937439 513.071167,760.407349 513.187378,758.716187 
	C513.308350,756.954773 514.760010,756.636292 516.114502,756.760620 
	C518.965942,757.022400 523.022339,755.075500 524.378662,758.168152 
	C526.074097,762.033936 525.318298,766.636169 524.520447,770.902954 
	C524.448730,771.286804 523.733582,771.923096 523.505676,771.850525 
	C517.644897,769.983276 511.141235,774.932007 505.273407,769.918823 
z"/>
<path fill="#000000" opacity="1.000000" stroke="none" 
	d="
M401.097473,756.345703 
	C401.912018,751.571533 403.113678,747.461060 407.269714,744.991455 
	C412.522339,741.870361 419.999756,743.014221 423.670929,747.512024 
	C428.561066,753.503235 428.312042,763.280640 423.131287,768.697388 
	C419.070801,772.942810 411.652191,773.562866 406.590515,770.005737 
	C401.985352,766.769470 401.140778,761.905396 401.097473,756.345703 
M411.443085,767.233582 
	C416.059082,768.520630 419.267517,766.894714 420.991516,762.472412 
	C422.841797,757.726135 421.455017,751.354614 418.198975,749.163452 
	C414.796417,746.873657 409.814789,748.073669 407.802826,751.667664 
	C404.936401,756.787903 406.112305,762.791382 411.443085,767.233582 
z"/>
<path fill="#000000" opacity="1.000000" stroke="none" 
	d="
M482.853271,771.386108 
	C475.525024,773.197144 470.555878,771.714417 467.414185,767.019348 
	C463.863770,761.713440 463.994934,753.213013 467.705414,748.144653 
	C470.880554,743.807556 476.246216,742.095642 481.990356,743.811646 
	C487.905151,745.578613 490.090912,750.297546 490.938477,755.859070 
	C491.920410,762.302185 489.139496,767.750549 482.853271,771.386108 
M470.452087,754.283386 
	C470.470123,756.605530 470.153473,758.990356 470.574463,761.237000 
	C471.509186,766.225525 475.811066,768.949158 480.140717,767.374207 
	C484.877991,765.651062 485.705322,761.527344 485.610382,757.181213 
	C485.517700,752.940247 484.320160,749.150696 479.500854,748.078796 
	C474.902405,747.056030 472.319336,749.607239 470.452087,754.283386 
z"/>
<path fill="#000000" opacity="1.000000" stroke="none" 
	d="
M634.799744,749.195190 
	C635.049500,746.742920 634.096008,743.795410 637.498535,743.962646 
	C640.668457,744.118408 639.953064,746.973450 640.050476,748.993042 
	C640.326355,754.711731 646.318665,757.984680 651.385376,755.150024 
	C652.606873,754.466553 652.750977,753.358582 652.787048,752.181580 
	C652.842957,750.356323 652.818481,748.528259 652.889526,746.703796 
	C652.955322,745.013855 653.632690,743.809265 655.561279,743.835388 
	C657.466064,743.861267 658.202148,745.051392 658.205078,746.746643 
	C658.218018,754.218750 658.204590,761.691040 658.149841,769.162842 
	C658.137512,770.847656 657.388794,772.111755 655.476074,772.026062 
	C653.606506,771.942322 652.993347,770.621887 652.889221,768.972046 
	C652.837036,768.144226 652.846619,767.312561 652.828491,766.482605 
	C652.687683,760.024048 652.614685,760.195129 645.991272,759.909180 
	C641.363953,759.709473 639.536133,761.468384 640.119507,765.969788 
	C640.204163,766.622986 640.150635,767.297546 640.125427,767.960876 
	C640.055603,769.798706 640.183350,771.945312 637.589539,771.996704 
	C635.052307,772.046936 634.866699,769.990173 634.852173,768.102905 
	C634.805054,761.958862 634.813599,755.814392 634.799744,749.195190 
z"/>
<path fill="#000000" opacity="1.000000" stroke="none" 
	d="
M372.078918,749.049805 
	C372.408264,751.500122 371.104828,754.405273 373.808258,755.176392 
	C376.950073,756.072571 380.546753,756.418396 383.537567,754.870239 
	C385.728210,753.736206 384.504089,750.926331 384.778656,748.858032 
	C385.041840,746.875122 384.088165,743.925598 387.396027,743.945801 
	C390.600922,743.965454 390.024933,746.858154 390.048218,748.879944 
	C390.120880,755.198364 390.067413,761.519165 389.987823,767.838074 
	C389.965179,769.633972 390.087158,771.876282 387.500610,771.942932 
	C384.965820,772.008362 384.857086,769.919312 384.793610,768.023254 
	C384.776917,767.524719 384.834137,767.017639 384.763214,766.528076 
	C384.468231,764.492126 385.780396,761.648987 383.367889,760.641541 
	C380.300812,759.360779 376.825806,759.581116 373.593597,760.548950 
	C372.067902,761.005676 372.178101,762.639160 372.126373,763.958557 
	C372.054779,765.785339 372.093048,767.617126 371.995880,769.442017 
	C371.915436,770.952515 371.146515,771.998169 369.535950,772.015869 
	C367.938477,772.033447 367.005859,771.010925 366.991089,769.519714 
	C366.913574,761.707153 366.899963,753.893372 366.948425,746.080505 
	C366.958405,744.479187 368.054626,743.646301 369.634705,743.893005 
	C372.494843,744.339722 371.858673,746.718323 372.078918,749.049805 
z"/>
<path fill="#000000" opacity="1.000000" stroke="none" 
	d="
M574.988953,765.584229 
	C573.053406,766.642883 572.651489,768.321106 571.979370,769.819641 
	C570.985901,772.034607 569.361328,772.613098 567.278503,771.884277 
	C566.279724,770.877808 566.564148,769.897766 566.939758,768.968750 
	C569.863770,761.735901 572.795715,754.506042 575.761780,747.290344 
	C576.519775,745.446411 577.227417,743.560425 579.861511,743.667908 
	C582.186890,743.762817 582.838196,745.359863 583.559937,747.100220 
	C586.847229,755.027283 590.177979,762.936340 593.444214,770.735107 
	C591.326477,772.658203 588.998169,772.767456 588.412292,770.901550 
	C586.129456,763.631165 580.510620,765.312744 574.988953,765.584229 
M578.132202,754.067322 
	C577.577759,756.030273 575.909668,757.763855 576.860657,760.132263 
	C578.904541,760.955383 580.905151,761.074097 583.218994,759.998962 
	C582.449890,756.998413 581.624451,754.112915 579.687195,751.103699 
	C579.093750,752.149353 578.719299,752.809143 578.132202,754.067322 
z"/>
<path fill="#000000" opacity="1.000000" stroke="none" 
	d="
M622.759827,747.540771 
	C626.410889,756.601746 622.923279,762.314880 613.750183,762.190369 
	C609.167480,762.128174 607.815735,763.810791 608.240784,768.023560 
	C608.418945,769.789246 608.484131,772.050659 605.760254,772.003967 
	C603.205872,771.960205 603.102722,769.791016 603.083374,767.976868 
	C603.010620,761.145203 603.027771,754.312073 603.083313,747.480042 
	C603.095398,745.993103 603.233032,743.962158 605.091248,743.958130 
	C611.074402,743.945068 617.545410,741.748108 622.759827,747.540771 
M615.742676,757.523560 
	C619.013245,756.355835 619.597717,753.748413 618.416199,751.063354 
	C616.905212,747.629395 613.486389,748.032593 610.539124,748.467957 
	C607.309692,748.944946 608.465149,751.774048 608.334167,753.732849 
	C607.965759,759.243958 612.094971,757.401550 615.742676,757.523560 
z"/>
<path fill="#000000" opacity="1.000000" stroke="none" 
	d="
M338.869934,771.780762 
	C335.619049,772.339172 335.069946,770.442749 335.048004,768.286255 
	C334.977203,761.323792 334.973114,754.360168 335.004395,747.397278 
	C335.012085,745.681152 335.320709,743.887329 337.548218,743.812073 
	C341.677185,743.672485 345.865814,743.114563 349.918732,744.187134 
	C354.184937,745.316162 356.067291,748.601440 356.176422,752.752686 
	C356.287384,756.974426 354.279999,760.050537 350.146271,761.468750 
	C349.213745,761.788696 348.174744,762.231812 347.259949,762.099243 
	C341.471436,761.260498 339.408905,763.846008 340.144897,769.377319 
	C340.236572,770.066101 339.576111,770.854919 338.869934,771.780762 
M350.124939,750.441284 
	C348.214905,747.946228 345.483704,748.258057 342.845123,748.360474 
	C340.205353,748.462891 340.162506,750.462097 340.291199,752.303955 
	C340.427734,754.258789 339.334351,756.764648 342.472473,757.601624 
	C347.614594,758.973083 350.700775,756.519287 350.124939,750.441284 
z"/>
<path fill="#000000" opacity="1.000000" stroke="none" 
	d="
M675.517761,748.426758 
	C676.995056,750.841614 678.281738,752.936157 679.549561,754.999878 
	C684.648315,752.439880 683.174744,743.233826 691.453247,743.974609 
	C691.539978,747.427490 689.341553,749.464111 687.977173,751.781677 
	C684.865784,757.066589 681.164185,762.061523 682.260132,768.782898 
	C682.503418,770.274841 682.110229,771.879150 680.030518,771.966675 
	C678.086182,772.048645 677.117676,770.669617 677.321960,769.126465 
	C678.462158,760.513733 673.056824,754.469177 669.243652,747.785156 
	C668.682678,746.801880 667.877991,745.860107 668.297852,744.454895 
	C672.394165,742.216675 673.729248,745.423950 675.517761,748.426758 
z"/>
<path fill="#000000" opacity="1.000000" stroke="none" 
	d="
M448.388855,761.976013 
	C448.365753,764.624146 448.369446,766.784668 448.312805,768.943665 
	C448.269867,770.579651 447.826508,772.007080 445.786835,771.858459 
	C444.060852,771.732788 443.724213,770.393005 443.713409,768.984863 
	C443.673859,763.834045 443.511841,758.676331 443.718140,753.534180 
	C443.864380,749.889282 443.031525,747.719238 438.820526,748.144958 
	C437.163696,748.312439 435.206207,748.095947 435.275299,745.741394 
	C435.336395,743.660278 437.150238,743.716553 438.635132,743.708191 
	C443.785797,743.679138 448.937042,743.684937 454.087494,743.736206 
	C455.446747,743.749695 456.834747,743.984741 456.980011,745.764465 
	C457.098602,747.217957 456.133484,748.132874 454.895508,748.000549 
	C447.946686,747.258179 448.017395,751.700195 448.377899,756.504272 
	C448.501831,758.156433 448.392456,759.826111 448.388855,761.976013 
z"/>
<path fill="#000000" opacity="1.000000" stroke="none" 
	d="
M597.287476,512.586182 
	C598.452698,512.009949 599.265442,511.222168 600.815308,512.349365 
	C596.691162,517.786438 591.491699,522.035889 586.176331,526.084961 
	C563.049622,543.702026 536.768860,551.263306 507.948792,549.138428 
	C482.896057,547.291382 460.890106,537.376038 442.153870,520.761841 
	C436.248138,515.524963 435.046783,507.317932 433.080444,499.990875 
	C425.047943,470.060638 429.488312,441.916168 446.108002,415.777100 
	C450.186981,409.361786 455.033295,403.509308 460.923798,398.731323 
	C462.007996,399.529480 461.770233,400.211365 461.442352,400.765045 
	C438.721649,439.132416 456.200073,484.197113 488.604004,505.520264 
	C523.219055,528.298401 559.578857,529.583130 597.287476,512.586182 
z"/>
<path fill="#000000" opacity="1.000000" stroke="none" 
	d="
M498.695862,348.336853 
	C475.425720,345.260986 454.069672,350.365417 433.868530,360.456451 
	C432.830536,359.014587 433.548889,358.425720 434.095215,357.866608 
	C458.163635,333.234558 487.225983,320.366516 521.850586,321.832520 
	C546.731201,322.885956 568.818542,332.025116 588.237000,347.573181 
	C589.369446,348.479919 590.396851,349.721863 591.025452,351.023956 
	C606.530029,383.144348 608.489319,415.516296 592.519409,448.110260 
	C588.187317,456.951965 582.337280,464.720062 575.333923,471.765961 
	C573.628113,469.995361 574.973022,468.952850 575.481018,467.913574 
	C589.205322,439.840668 584.679016,406.799591 564.250977,382.915314 
	C547.026123,362.776093 524.870667,352.294128 498.695862,348.336853 
z"/>
<path fill="#000000" opacity="1.000000" stroke="none" 
	d="
M607.505371,433.534698 
	C613.990479,413.205750 614.404297,393.043335 609.224854,372.685974 
	C611.536804,372.600647 611.899109,374.088531 612.533813,375.157104 
	C632.858521,409.375366 635.678528,444.931610 620.765076,481.891937 
	C618.568665,487.335205 615.189941,491.482971 610.274414,494.766754 
	C572.214600,520.191833 533.239746,522.465027 493.177277,499.732178 
	C492.094147,499.117554 490.598785,498.776276 490.672424,497.061554 
	C491.432953,496.308472 492.266052,496.560181 493.027008,496.851990 
	C532.522644,511.998077 576.425415,490.830811 596.737854,457.002014 
	C601.120911,449.702423 604.813416,442.061523 607.505371,433.534698 
z"/>
<path fill="#000000" opacity="1.000000" stroke="none" 
	d="
M413.850464,388.023621 
	C415.398712,383.684509 418.489838,381.291077 421.778381,378.882782 
	C437.080414,367.676575 453.850800,359.947388 472.698456,357.173950 
	C496.701111,353.641998 518.997070,358.609253 539.690369,371.111847 
	C540.355469,371.513672 541.234436,371.879150 540.928223,373.346619 
	C535.561096,372.766052 530.449036,370.826141 525.082581,370.103271 
	C503.909393,367.251251 484.450348,372.248871 467.283508,384.241150 
	C433.409363,407.904785 418.451904,441.140717 420.409912,482.184082 
	C420.613129,486.443481 421.358551,490.676880 421.833069,494.924500 
	C421.841095,494.996460 421.603760,495.095795 421.480927,495.182312 
	C405.503571,475.624023 394.843719,428.748810 413.850464,388.023621 
z"/>
</svg>